<svg width="1113" height="518" viewBox="0 0 1113 518" fill="none" xmlns="http://www.w3.org/2000/svg">
<rect width="101" height="130" transform="matrix(-1 0 0 1 607 388)" fill="url(#paint0_linear_2023_216)"/>
<rect width="102" height="190" transform="matrix(-1 0 0 1 709 328)" fill="url(#paint1_linear_2023_216)"/>
<rect width="102" height="250" transform="matrix(-1 0 0 1 810 268)" fill="url(#paint2_linear_2023_216)"/>
<rect width="102" height="310" transform="matrix(-1 0 0 1 911 208)" fill="url(#paint3_linear_2023_216)"/>
<rect width="102" height="370" transform="matrix(-1 0 0 1 1012 148)" fill="url(#paint4_linear_2023_216)"/>
<rect width="102" height="430" transform="matrix(-1 0 0 1 1113 88)" fill="url(#paint5_linear_2023_216)"/>
<rect x="505" y="388" width="102" height="130" fill="url(#paint6_linear_2023_216)"/>
<rect x="404" y="328" width="102" height="190" fill="url(#paint7_linear_2023_216)"/>
<rect x="303" y="268" width="102" height="250" fill="url(#paint8_linear_2023_216)"/>
<rect x="202" y="208" width="102" height="310" fill="url(#paint9_linear_2023_216)"/>
<rect x="101" y="148" width="102" height="370" fill="url(#paint10_linear_2023_216)"/>
<rect y="88" width="102" height="430" fill="url(#paint11_linear_2023_216)"/>
<defs>
<linearGradient id="paint0_linear_2023_216" x1="101" y1="130" x2="101" y2="1.77225e-07" gradientUnits="userSpaceOnUse">
<stop stop-color="#147365"/>
<stop offset="1" stop-color="#0A0A0A"/>
</linearGradient>
<linearGradient id="paint1_linear_2023_216" x1="102" y1="190" x2="102" y2="2.59021e-07" gradientUnits="userSpaceOnUse">
<stop stop-color="#147365"/>
<stop offset="1" stop-color="#0A0A0A"/>
</linearGradient>
<linearGradient id="paint2_linear_2023_216" x1="102" y1="250" x2="102" y2="3.40817e-07" gradientUnits="userSpaceOnUse">
<stop stop-color="#147365"/>
<stop offset="1" stop-color="#0A0A0A"/>
</linearGradient>
<linearGradient id="paint3_linear_2023_216" x1="102" y1="310" x2="102" y2="4.22613e-07" gradientUnits="userSpaceOnUse">
<stop stop-color="#147365"/>
<stop offset="1" stop-color="#0A0A0A"/>
</linearGradient>
<linearGradient id="paint4_linear_2023_216" x1="102" y1="370" x2="102" y2="5.04409e-07" gradientUnits="userSpaceOnUse">
<stop stop-color="#147365"/>
<stop offset="1" stop-color="#0A0A0A"/>
</linearGradient>
<linearGradient id="paint5_linear_2023_216" x1="102" y1="430" x2="102" y2="5.86205e-07" gradientUnits="userSpaceOnUse">
<stop stop-color="#147365"/>
<stop offset="1" stop-color="#0A0A0A"/>
</linearGradient>
<linearGradient id="paint6_linear_2023_216" x1="607" y1="518" x2="607" y2="388" gradientUnits="userSpaceOnUse">
<stop stop-color="#147365"/>
<stop offset="1" stop-color="#0A0A0A"/>
</linearGradient>
<linearGradient id="paint7_linear_2023_216" x1="506" y1="518" x2="506" y2="328" gradientUnits="userSpaceOnUse">
<stop stop-color="#147365"/>
<stop offset="1" stop-color="#0A0A0A"/>
</linearGradient>
<linearGradient id="paint8_linear_2023_216" x1="405" y1="518" x2="405" y2="268" gradientUnits="userSpaceOnUse">
<stop stop-color="#147365"/>
<stop offset="1" stop-color="#0A0A0A"/>
</linearGradient>
<linearGradient id="paint9_linear_2023_216" x1="304" y1="518" x2="304" y2="208" gradientUnits="userSpaceOnUse">
<stop stop-color="#147365"/>
<stop offset="1" stop-color="#0A0A0A"/>
</linearGradient>
<linearGradient id="paint10_linear_2023_216" x1="203" y1="518" x2="203" y2="148" gradientUnits="userSpaceOnUse">
<stop stop-color="#147365"/>
<stop offset="1" stop-color="#0A0A0A"/>
</linearGradient>
<linearGradient id="paint11_linear_2023_216" x1="102" y1="518" x2="102" y2="88" gradientUnits="userSpaceOnUse">
<stop stop-color="#147365"/>
<stop offset="1" stop-color="#0A0A0A"/>
</linearGradient>
</defs>
</svg>
